<mxfile host="app.diagrams.net" modified="2020-06-15T03:21:35.503Z" agent="5.0 (Macintosh; Intel Mac OS X 10_15_5) AppleWebKit/537.36 (KHTML, like Gecko) Chrome/83.0.4103.97 Safari/537.36" etag="c8MQ88wsxE_1VNYU4n_O" version="13.2.4" type="github">
  <diagram id="uArC8xTYRuAt1ZbdNL_C" name="第 1 页">
    <mxGraphModel dx="1186" dy="693" grid="1" gridSize="10" guides="1" tooltips="1" connect="1" arrows="1" fold="1" page="1" pageScale="1" pageWidth="827" pageHeight="1169" math="0" shadow="0">
      <root>
        <mxCell id="0" />
        <mxCell id="1" parent="0" />
        <mxCell id="LuM3YmjF2VSgwdyVFMp--3" style="edgeStyle=orthogonalEdgeStyle;rounded=0;orthogonalLoop=1;jettySize=auto;html=1;entryX=0;entryY=0.5;entryDx=0;entryDy=0;" edge="1" parent="1" source="LuM3YmjF2VSgwdyVFMp--1" target="LuM3YmjF2VSgwdyVFMp--4">
          <mxGeometry relative="1" as="geometry">
            <mxPoint x="220" y="175" as="targetPoint" />
          </mxGeometry>
        </mxCell>
        <mxCell id="LuM3YmjF2VSgwdyVFMp--1" value="流程图" style="whiteSpace=wrap;html=1;aspect=fixed;" vertex="1" parent="1">
          <mxGeometry x="60" y="120" width="110" height="110" as="geometry" />
        </mxCell>
        <mxCell id="LuM3YmjF2VSgwdyVFMp--4" value="画出来" style="rounded=1;whiteSpace=wrap;html=1;" vertex="1" parent="1">
          <mxGeometry x="250" y="145" width="120" height="60" as="geometry" />
        </mxCell>
      </root>
    </mxGraphModel>
  </diagram>
</mxfile>
